<svg width="28" height="28" viewBox="0 0 28 28" fill="none" xmlns="http://www.w3.org/2000/svg">
    <circle cx="14" cy="14" r="13.5" stroke="#1D8717"/>
    <path d="M16.216 23.6748C18.5862 23.9723 20.9492 24.0303 23.3409 23.5078C19.4455 27.8693 11.3109 29.0739 5.68261 24.5601C-0.554373 19.5528 -0.883766 10.5905 3.67045 5.20579C3.45562 5.90971 3.22648 6.60638 3.0403 7.31031C2.74671 8.41337 2.63214 9.53819 2.78252 10.6703C3.07611 12.9199 4.41516 14.2189 6.52041 14.814C8.24614 15.3002 9.82866 14.8793 11.3324 14.0157C13.23 12.9272 14.7481 11.396 16.1444 9.72688C17.9489 7.57156 19.4885 5.2203 20.849 2.74568C20.9134 2.62231 20.9922 2.5062 21.0925 2.33203C21.6009 2.71665 22.095 3.06498 22.5604 3.4496C23.5414 4.2769 24.3792 5.22756 25.1025 6.29433C25.2528 6.5193 25.2528 6.67169 25.0953 6.88215C23.9782 8.36982 22.8755 9.86476 21.7656 11.3597C21.7083 11.4395 21.6438 11.5193 21.5865 11.5992C21.6152 11.6282 21.6367 11.65 21.6653 11.679C23.0831 10.3945 24.5081 9.10278 25.9546 7.79652C25.9904 7.85458 26.0548 7.95618 26.0978 8.07229C26.2983 8.58753 26.4845 9.10278 26.6993 9.61076C26.864 9.98813 26.7995 10.2639 26.5346 10.5905C24.501 13.0143 22.0806 14.9519 19.3667 16.5121C16.4165 18.2103 13.2443 19.3061 9.90027 19.9011C9.33457 20.0027 8.76171 20.068 8.19602 20.1551C8.19602 20.1842 8.20318 20.2204 8.20318 20.2495C8.41084 20.2495 8.61134 20.2495 8.819 20.2495C10.7452 20.2858 12.6715 20.2059 14.5905 19.9664C17.8988 19.5528 21.1354 18.8416 24.1143 17.2669C25.1597 16.7153 26.105 15.9824 27.0931 15.3293C27.1719 15.2785 27.2363 15.2131 27.308 15.1623C27.3438 15.1769 27.3796 15.1841 27.4154 15.1986C27.2077 16.1203 27.0645 17.0564 26.7852 17.949C26.5131 18.8053 26.1121 19.6181 25.7254 20.4309C25.618 20.6486 25.3817 20.8518 25.1597 20.9534C23.0688 21.9113 20.892 22.6007 18.6578 23.0869C17.8558 23.2611 17.0467 23.399 16.2447 23.5586C16.216 23.6022 16.216 23.6385 16.216 23.6748Z" fill="#1D8717"/>
    <path d="M6.56545 7.76519C5.42149 9.6378 5.70269 11.5584 6.5335 13.5614C6.37373 13.4791 6.27147 13.4379 6.17561 13.383C4.91022 12.6148 4.2903 11.4075 4.12414 9.8916C3.95798 8.39625 4.30948 6.99693 4.72488 5.5839C5.10194 4.30805 5.79216 3.35459 6.84665 2.6275C8.30377 1.63288 9.85675 0.926364 11.5567 0.583394C11.5823 0.576534 11.6142 0.597113 11.6654 0.610831C8.8406 4.603 7.94588 8.89699 9.83758 13.6574C9.35187 13.9249 8.82143 13.9524 8.2846 13.9935C7.26206 14.069 6.94251 13.3076 6.68049 12.4845C6.21395 11.044 6.26508 9.58293 6.59741 8.12188C6.62297 8.00527 6.64853 7.89552 6.6741 7.77891C6.62936 7.77205 6.59741 7.77205 6.56545 7.76519Z" fill="#1D8717"/>
</svg>
