<svg width="26" height="26" viewBox="0 0 26 26" fill="none" xmlns="http://www.w3.org/2000/svg">
    <circle cx="13" cy="13" r="12.5" stroke="#1C74BC"/>
    <path d="M10.3238 11.1723C8.52146 10.7048 6.70178 10.2373 4.8821 9.76395C4.8821 9.74664 4.8763 9.73509 4.8763 9.71778C6.71337 9.35414 8.55044 8.9905 10.4512 8.61532C9.48925 6.94144 8.55044 5.32528 7.61741 3.70335C7.629 3.68603 7.64059 3.66871 7.65218 3.6514C9.33278 4.59223 11.0134 5.5273 12.7403 6.497C13.0301 5.02514 13.3083 3.60522 13.5864 2.18531C13.6038 2.17954 13.627 2.17376 13.6444 2.16799C14.1428 3.57059 14.6412 4.96742 15.1337 6.37001C16.2174 5.30219 17.278 4.26323 18.3327 3.2185C18.3616 3.23004 18.3848 3.24159 18.4138 3.24736C18.2399 4.71345 18.0719 6.18531 17.8922 7.73221C19.2715 7.60522 20.6044 7.48401 22.0242 7.35125C20.9289 8.15933 19.8974 8.92124 18.8079 9.72355C19.9379 10.8029 21.0448 11.8592 22.2096 12.9732C21.9894 12.9616 21.8503 12.9616 21.7112 12.9501C20.5812 12.8635 19.4453 12.7827 18.3153 12.6961C18.124 12.6788 18.0545 12.7481 18.0893 12.9443C18.2631 13.9429 18.437 14.9472 18.5992 15.9458C18.6862 16.4537 18.7615 16.9674 18.7847 17.5158C17.5909 16.3325 16.4029 15.1435 15.1685 13.914C14.3978 15.813 13.656 17.6543 12.9084 19.5013C12.8968 19.4956 12.8794 19.4956 12.8678 19.4898C12.8389 17.4003 12.8041 15.3109 12.7693 13.1463C10.6193 13.8332 8.52146 14.5028 6.40622 15.1781C7.71014 13.8505 9.00825 12.523 10.3238 11.1723ZM16.0784 9.22716C16.1479 8.59224 16.2116 8.01503 16.2754 7.43783C16.2464 7.42629 16.2232 7.40897 16.1943 7.39743C15.7944 7.81879 15.3887 8.23437 14.9425 8.7019C14.7165 8.06698 14.5195 7.52441 14.3224 6.98184C14.2934 6.98762 14.2587 6.99339 14.2297 6.99916C14.1138 7.55327 13.9979 8.11316 13.8762 8.70767C13.1634 8.30941 12.4969 7.94577 11.8305 7.57636C11.8131 7.59945 11.7957 7.61677 11.7783 7.63985C12.1492 8.28632 12.5143 8.93278 12.9026 9.60811C12.1261 9.76395 11.4075 9.91402 10.6889 10.0583C10.6889 10.0872 10.6889 10.116 10.6889 10.1507C11.4017 10.3412 12.1087 10.5259 12.9026 10.7394C12.3405 11.2878 11.8247 11.7899 11.3031 12.2921C11.3147 12.3152 11.3321 12.3383 11.3437 12.3671C12.1666 12.1074 12.9895 11.8534 13.9052 11.5648C13.9052 12.4595 13.9052 13.2849 13.9052 14.1103C13.9399 14.116 13.9805 14.116 14.0153 14.1218C14.3166 13.3945 14.6122 12.6615 14.9135 11.9342C14.9599 11.9054 15.0062 11.8823 15.0526 11.8534C15.493 12.3267 15.9335 12.8058 16.3739 13.2791C16.3971 13.2733 16.4145 13.2618 16.4377 13.256C16.3391 12.6442 16.2406 12.0324 16.1363 11.3743C16.6926 11.409 17.22 11.4378 17.7937 11.4725C17.3301 10.9992 16.9129 10.5663 16.4666 10.1103C16.9129 9.7755 17.3301 9.46381 17.7474 9.15212C17.7358 9.12903 17.7242 9.11172 17.7126 9.08863C17.191 9.12903 16.6637 9.17521 16.0784 9.22716Z" fill="#1C74BC"/>
    <path d="M3.76612 21.0377C4.58177 20.1718 5.38426 19.3255 6.18017 18.4791C7.06817 17.5351 7.95617 16.5911 8.85075 15.6601C8.99547 15.5104 9.18622 15.3867 9.38355 15.3216C10.0874 15.0742 10.8044 14.8593 11.5148 14.6315C11.6068 14.6054 11.6989 14.5859 11.8305 14.5533C11.8371 14.6705 11.8502 14.7617 11.8502 14.8463C11.8436 15.8749 11.8436 16.9101 11.8305 17.9387C11.8305 18.0885 11.7779 18.2578 11.6989 18.3815C10.4623 20.1588 9.21253 21.9231 7.98249 23.7005C7.81804 23.9414 7.68648 23.9674 7.42995 23.8372C6.09466 23.1536 4.92381 22.2617 3.8911 21.1874C3.84506 21.1549 3.81875 21.1093 3.76612 21.0377Z" fill="#1C74BC"/>
    <path d="M5.40398 12.6132C3.85162 13.6353 2.38478 14.6054 0.91135 15.5819C0.602194 15.1132 0.450905 12.7434 0.602194 12.0793C2.16771 12.2551 3.7398 12.4309 5.40398 12.6132Z" fill="#1C74BC"/>
    <path d="M18.3753 24.0198C17.4873 24.3128 16.6191 24.6057 15.6784 24.9182C15.9086 22.7177 16.1191 20.6214 16.3362 18.5315C16.3559 18.525 16.3757 18.525 16.402 18.5185C17.0466 20.3219 17.6978 22.1318 18.3753 24.0198Z" fill="#1C74BC"/>
    <path d="M4.00284 4.17597C5.13422 5.11347 6.23929 6.02493 7.3904 6.97545C5.62756 6.84524 3.93707 6.72154 2.1808 6.59784C2.69386 5.6994 3.27271 4.91164 4.00284 4.17597Z" fill="#1C74BC"/>
    <path d="M22.3351 16.2265C23.1376 16.6822 23.848 17.0858 24.6242 17.522C24.2822 18.1731 23.9533 18.8111 23.5718 19.5338C23.1442 18.3944 22.7561 17.3593 22.3351 16.2265Z" fill="#1C74BC"/>
    <path d="M9.71464 1.46892C10.2935 1.33872 10.8658 1.19549 11.4512 1.08481C11.5301 1.07179 11.6253 0.813825 11.7209 1.2671C11.8458 1.85955 11.9445 2.46502 12.0695 3.13559C11.2473 2.58872 10.4842 2.07439 9.72122 1.56007C9.58605 1.46888 9.71464 1.50148 9.71464 1.46892Z" fill="#1C74BC"/>
    <path d="M24.839 11.0833C24.076 10.6927 23.3129 10.3021 22.4776 9.87889C23.1551 9.71613 23.7405 9.56639 24.3391 9.43618C24.4114 9.42316 24.5627 9.52081 24.5825 9.59894C24.7074 10.0742 24.8061 10.5495 24.9113 11.0247C24.8916 11.0508 24.8653 11.0638 24.839 11.0833Z" fill="#1C74BC"/>
</svg>
