<svg width="28" height="28" viewBox="0 0 28 28" fill="none" xmlns="http://www.w3.org/2000/svg">
    <circle cx="14" cy="14" r="13.5" stroke="#B62518"/>
    <path d="M12.1426 10.7165C13.9167 11.8711 15.8515 12.146 17.9536 11.8299C17.88 11.9742 17.8398 12.0636 17.7929 12.146C17.3979 12.7989 17.003 13.4518 16.6147 14.1116C16.0255 15.1081 16.2532 16.0015 17.2239 16.5857C17.4113 16.6957 17.5184 16.6819 17.6456 16.4895C18.931 14.5102 20.2164 12.5378 21.5085 10.5653C21.6089 10.4141 21.6089 10.3042 21.5152 10.1461C20.5177 8.53107 19.1787 7.33524 17.4314 6.64112C15.3628 5.81641 13.2339 5.73394 11.0849 6.17378C10.6096 6.27 10.228 6.22876 9.89992 5.86452C9.2974 5.19101 8.68819 4.52437 8.11245 3.83025C7.72415 3.36291 7.40281 2.8406 7.0413 2.33203C6.95427 2.37327 6.87393 2.40763 6.80029 2.45574C4.00862 4.23573 2.19437 6.78544 1.23034 9.99492C1.12322 10.3523 1.15669 10.6616 1.31067 10.9914C1.79938 12.0842 2.46215 13.0669 3.19187 13.9947C5.33416 16.7369 7.81788 19.1491 10.3953 21.4583C10.4422 21.4996 10.4957 21.5271 10.5694 21.582C12.3502 18.7299 14.1243 15.8984 15.8983 13.0601C14.3853 12.6615 13.2606 11.7062 12.1426 10.7165Z" fill="#B62518"/>
    <path d="M20.6917 20.4143C19.1978 19.3222 17.7171 18.2161 16.2298 17.1101C16.1377 17.0406 16.039 16.9849 15.9337 16.9154C15.4665 17.6388 15.0256 18.3274 14.5846 19.023C14.6175 19.0717 14.6175 19.0856 14.6241 19.0926C16.2298 20.289 17.8356 21.4855 19.4413 22.6819C19.5203 22.7376 19.6453 22.7584 19.7374 22.7445C20.5271 22.5776 21.001 21.9307 21.001 21.0681C21.0075 20.7829 20.922 20.5882 20.6917 20.4143Z" fill="#B62518"/>
    <path d="M16.9953 22.1554C15.944 21.4803 14.94 20.7257 13.9157 20.0108C13.8281 19.9512 13.7405 19.8982 13.6327 19.832C13.161 20.5138 12.7095 21.1692 12.2513 21.8377C12.2985 21.8907 12.3119 21.9238 12.3389 21.9436C13.5182 22.7777 14.7041 23.6117 15.8901 24.4325C15.9643 24.4855 16.099 24.512 16.1934 24.4921C16.7459 24.3663 17.2109 24.0949 17.3794 23.5389C17.5478 22.9763 17.6354 22.5659 16.9953 22.1554Z" fill="#B62518"/>
    <path d="M24.8081 14.8191C24.2674 14.4763 23.7398 14.1208 23.2057 13.7653C22.7433 13.4605 22.2808 13.1558 21.7923 12.832C21.3299 13.4923 20.8869 14.1271 20.418 14.8001C21.4992 15.5111 22.5349 16.2031 23.5835 16.8824C23.6421 16.9205 23.7464 16.9205 23.818 16.9078C24.6517 16.73 25.1272 16.1206 25.0816 15.3016C25.0751 15.0921 25.0035 14.9397 24.8081 14.8191Z" fill="#B62518"/>
    <path d="M23.1741 17.8294C22.1392 17.1422 21.1044 16.4614 20.0237 15.7487C19.5587 16.4168 19.1133 17.0531 18.668 17.6894C18.7007 17.734 18.7138 17.7658 18.74 17.7785C19.7486 18.4466 20.7573 19.1148 21.7725 19.7765C21.851 19.8274 21.9755 19.8402 22.0672 19.8274C22.9514 19.662 23.4819 18.8793 23.2985 18.0267C23.2854 17.9567 23.233 17.874 23.1741 17.8294Z" fill="#B62518"/>
    <path d="M18.8489 1.36764C17.9202 0.992856 16.9915 0.718973 15.9783 0.582031C16.5412 2.28299 17.0759 3.91187 17.6528 5.65608C18.0609 4.17134 18.4479 2.78751 18.8489 1.36764Z" fill="#B62518"/>
    <path d="M3.77802 22.5214C4.64343 21.534 5.47366 20.5826 6.35313 19.5736C4.90376 19.6817 3.54584 19.7754 2.11054 19.8835C2.56786 20.8781 3.11666 21.7214 3.77802 22.5214Z" fill="#B62518"/>
    <path d="M9.62842 26.4785C9.85357 25.3613 10.0576 24.3451 10.2757 23.2351C9.23441 23.8982 8.27754 24.5109 7.22217 25.1884C8.06647 25.6352 8.81227 26.0388 9.62842 26.4785Z" fill="#B62518"/>
    <path d="M22.2683 3.38573C21.9939 4.68307 21.7406 5.8723 21.4662 7.16243C22.3809 6.48493 23.2111 5.8723 24.1046 5.21642C23.4925 4.60379 22.9156 4.02719 22.2683 3.38573Z" fill="#B62518"/>
    <path d="M26.8345 10.8673C26.6726 10.3124 26.5038 9.76461 26.3209 9.13035C25.6525 9.71415 25.0403 10.2331 24.4353 10.7592C24.4493 10.7953 24.4634 10.8313 24.4775 10.8673C25.2373 10.8673 26.0113 10.8673 26.8345 10.8673Z" fill="#B62518"/>
    <path d="M14.571 25.1813C14.2333 25.9165 13.8955 26.6445 13.5367 27.4229C14.0292 27.4229 14.4725 27.4229 14.965 27.4229C14.8524 26.6445 14.7539 25.9165 14.6484 25.1886C14.6202 25.1813 14.5921 25.1813 14.571 25.1813Z" fill="#B62518"/>
</svg>
